<svg width="141" height="41" viewBox="0 0 141 41" fill="black" xmlns="http://www.w3.org/2000/svg">
    <rect width="141" height="41" rx="4" fill="#111827" />
    <path
        d="M17.4438 22.1179V12.6364H21.3004V29H17.561V26.0916H17.3906C17.0213 27.0078 16.414 27.7571 15.5688 28.3395C14.7308 28.9219 13.6974 29.2131 12.4687 29.2131C11.3963 29.2131 10.4481 28.9751 9.62424 28.4993C8.80747 28.0163 8.16827 27.3168 7.70662 26.4006C7.24497 25.4773 7.01415 24.3622 7.01415 23.0554V12.6364H10.8707V22.4588C10.8707 23.4957 11.1548 24.3196 11.723 24.9304C12.2911 25.5412 13.0369 25.8466 13.9602 25.8466C14.5284 25.8466 15.0788 25.7081 15.6115 25.4311C16.1441 25.1541 16.5809 24.7422 16.9218 24.1953C17.2698 23.6413 17.4438 22.9489 17.4438 22.1179ZM28.8976 19.4119V29H25.0411V12.6364H28.7272V15.4169H28.9189C29.2954 14.5007 29.8955 13.7727 30.7194 13.233C31.5503 12.6932 32.5766 12.4233 33.7982 12.4233C34.9275 12.4233 35.9111 12.6648 36.7492 13.1477C37.5944 13.6307 38.2478 14.3303 38.7094 15.2464C39.1782 16.1626 39.409 17.2741 39.4019 18.581V29H35.5454V19.1776C35.5454 18.0838 35.2613 17.228 34.6931 16.6101C34.132 15.9922 33.3543 15.6832 32.36 15.6832C31.6853 15.6832 31.0851 15.8324 30.5596 16.1307C30.0411 16.4219 29.6327 16.8445 29.3344 17.3984C29.0432 17.9524 28.8976 18.6236 28.8976 19.4119ZM43.0974 29V12.6364H46.9539V29H43.0974ZM45.0363 10.3139C44.4255 10.3139 43.8999 10.1115 43.4596 9.70668C43.0192 9.29474 42.7991 8.80114 42.7991 8.22585C42.7991 7.64347 43.0192 7.14986 43.4596 6.74503C43.8999 6.3331 44.4255 6.12713 45.0363 6.12713C45.6542 6.12713 46.1797 6.3331 46.613 6.74503C47.0533 7.14986 47.2735 7.64347 47.2735 8.22585C47.2735 8.80114 47.0533 9.29474 46.613 9.70668C46.1797 10.1115 45.6542 10.3139 45.0363 10.3139ZM57.8324 29.3196C56.1989 29.3196 54.7962 28.9609 53.6243 28.2436C52.4595 27.5263 51.5611 26.5355 50.929 25.2713C50.304 24 49.9915 22.5369 49.9915 20.8821C49.9915 19.2202 50.3111 17.7536 50.9503 16.4822C51.5895 15.2038 52.4915 14.2095 53.6563 13.4993C54.8281 12.782 56.2131 12.4233 57.8111 12.4233C59.1392 12.4233 60.3146 12.6683 61.3374 13.1584C62.3672 13.6413 63.1875 14.3267 63.7983 15.2145C64.4091 16.0952 64.7571 17.125 64.8423 18.304H61.1563C61.0071 17.5156 60.652 16.8587 60.0909 16.3331C59.5369 15.8004 58.7948 15.5341 57.8644 15.5341C57.076 15.5341 56.3835 15.7472 55.7869 16.1733C55.1904 16.5923 54.7252 17.196 54.3914 17.9844C54.0646 18.7727 53.9013 19.7173 53.9013 20.8182C53.9013 21.9332 54.0646 22.892 54.3914 23.6946C54.7181 24.4901 55.1762 25.1044 55.7656 25.5376C56.3622 25.9638 57.0618 26.1768 57.8644 26.1768C58.4325 26.1768 58.9404 26.0703 59.3878 25.8572C59.8423 25.6371 60.2223 25.321 60.5277 24.9091C60.8331 24.4972 61.0426 23.9964 61.1563 23.407H64.8423C64.75 24.5646 64.4091 25.5909 63.8196 26.4858C63.2301 27.3736 62.4276 28.0696 61.4119 28.5739C60.3963 29.071 59.2031 29.3196 57.8324 29.3196ZM67.7841 35.1364V12.6364H71.5767V15.3423H71.8004C71.9993 14.9446 72.2798 14.522 72.642 14.0746C73.0042 13.62 73.4943 13.233 74.1122 12.9134C74.7301 12.5866 75.5184 12.4233 76.4773 12.4233C77.7415 12.4233 78.8814 12.7464 79.897 13.3928C80.9197 14.032 81.7294 14.9801 82.326 16.2372C82.9297 17.4872 83.2315 19.0213 83.2315 20.8395C83.2315 22.6364 82.9368 24.1634 82.3473 25.4205C81.7578 26.6776 80.9552 27.6364 79.9396 28.2969C78.924 28.9574 77.7734 29.2876 76.4879 29.2876C75.5504 29.2876 74.7727 29.1314 74.1548 28.8189C73.5369 28.5064 73.0398 28.13 72.6633 27.6896C72.294 27.2422 72.0064 26.8196 71.8004 26.4219H71.6406V35.1364H67.7841ZM71.566 20.8182C71.566 21.8764 71.7152 22.8033 72.0135 23.5987C72.3189 24.3942 72.7557 25.0156 73.3238 25.4631C73.8991 25.9034 74.5951 26.1236 75.4119 26.1236C76.2642 26.1236 76.978 25.8963 77.5532 25.4418C78.1285 24.9801 78.5618 24.3516 78.853 23.5561C79.1513 22.7536 79.3004 21.8409 79.3004 20.8182C79.3004 19.8026 79.1548 18.9006 78.8636 18.1122C78.5724 17.3239 78.1392 16.706 77.5639 16.2585C76.9886 15.8111 76.2713 15.5874 75.4119 15.5874C74.588 15.5874 73.8885 15.804 73.3132 16.2372C72.7379 16.6705 72.3011 17.2777 72.0028 18.0589C71.7116 18.8402 71.566 19.7599 71.566 20.8182ZM93.5534 29.3196C91.9128 29.3196 90.4959 28.9787 89.3027 28.2969C88.1166 27.608 87.204 26.6349 86.5648 25.3778C85.9255 24.1136 85.6059 22.6257 85.6059 20.9141C85.6059 19.2308 85.9255 17.7536 86.5648 16.4822C87.2111 15.2038 88.113 14.2095 89.2707 13.4993C90.4284 12.782 91.7885 12.4233 93.351 12.4233C94.3595 12.4233 95.3112 12.5866 96.2061 12.9134C97.1081 13.233 97.9035 13.7301 98.5925 14.4048C99.2885 15.0795 99.8354 15.9389 100.233 16.983C100.631 18.0199 100.83 19.2557 100.83 20.6903V21.8729H87.417V19.2734H97.1329C97.1258 18.5348 96.966 17.8778 96.6535 17.3026C96.341 16.7202 95.9042 16.2621 95.3432 15.9283C94.7892 15.5945 94.1429 15.4276 93.4042 15.4276C92.6159 15.4276 91.9234 15.6193 91.3268 16.0028C90.7302 16.3793 90.265 16.8764 89.9312 17.4943C89.6045 18.1051 89.4376 18.7763 89.4305 19.5078V21.777C89.4305 22.7287 89.6045 23.5455 89.9525 24.2273C90.3005 24.902 90.7871 25.4205 91.4121 25.7827C92.0371 26.1378 92.7686 26.3153 93.6067 26.3153C94.1677 26.3153 94.6755 26.2372 95.1301 26.081C95.5846 25.9176 95.9788 25.6797 96.3126 25.3672C96.6464 25.0547 96.8986 24.6676 97.069 24.206L100.67 24.6108C100.443 25.5625 100.009 26.3935 99.3702 27.1037C98.738 27.8068 97.9284 28.3537 96.9412 28.7443C95.954 29.1278 94.8247 29.3196 93.5534 29.3196ZM108.576 29.3303C107.539 29.3303 106.605 29.1456 105.774 28.7763C104.95 28.3999 104.297 27.8459 103.814 27.1143C103.338 26.3828 103.1 25.4808 103.1 24.4084C103.1 23.4851 103.271 22.7216 103.612 22.1179C103.953 21.5142 104.418 21.0312 105.007 20.669C105.597 20.3068 106.261 20.0334 106.999 19.8487C107.745 19.657 108.516 19.5185 109.311 19.4332C110.27 19.3338 111.048 19.245 111.644 19.1669C112.241 19.0817 112.674 18.9538 112.944 18.7834C113.221 18.6058 113.359 18.3324 113.359 17.9631V17.8991C113.359 17.0966 113.122 16.4751 112.646 16.0348C112.17 15.5945 111.484 15.3743 110.59 15.3743C109.645 15.3743 108.896 15.5803 108.342 15.9922C107.795 16.4041 107.426 16.8906 107.234 17.4517L103.633 16.9403C103.917 15.946 104.386 15.1151 105.039 14.4474C105.693 13.7727 106.492 13.2685 107.436 12.9347C108.381 12.5938 109.425 12.4233 110.568 12.4233C111.357 12.4233 112.141 12.5156 112.923 12.7003C113.704 12.8849 114.418 13.1903 115.064 13.6165C115.71 14.0355 116.229 14.6072 116.619 15.3317C117.017 16.0561 117.216 16.9616 117.216 18.0483V29H113.509V26.7521H113.381C113.146 27.2067 112.816 27.6328 112.39 28.0305C111.971 28.4212 111.442 28.7372 110.803 28.9787C110.171 29.2131 109.428 29.3303 108.576 29.3303ZM109.578 26.4964C110.352 26.4964 111.023 26.3437 111.591 26.0384C112.159 25.7259 112.596 25.3139 112.901 24.8026C113.214 24.2912 113.37 23.7337 113.37 23.13V21.2017C113.249 21.3011 113.043 21.3935 112.752 21.4787C112.468 21.5639 112.149 21.6385 111.793 21.7024C111.438 21.7663 111.087 21.8232 110.739 21.8729C110.391 21.9226 110.089 21.9652 109.833 22.0007C109.258 22.0788 108.743 22.2067 108.288 22.3842C107.834 22.5618 107.475 22.8104 107.212 23.13C106.95 23.4425 106.818 23.8473 106.818 24.3445C106.818 25.0547 107.078 25.5909 107.596 25.9531C108.114 26.3153 108.775 26.4964 109.578 26.4964ZM124.384 23.8651L124.374 19.2095H124.992L130.872 12.6364H135.379L128.145 20.6903H127.346L124.384 23.8651ZM120.869 29V7.18182H124.725V29H120.869ZM131.139 29L125.812 21.5533L128.411 18.8366L135.752 29H131.139Z"
        fill="#F8FAFC" />
</svg>