<?xml version="1.0" encoding="UTF-8"?><svg id="a" xmlns="http://www.w3.org/2000/svg" viewBox="0 0 150 150"><defs><style>.b{fill:none;}</style></defs><path class="b" d="M0,0H150V150H0V0Z"/><path d="M51.79,79.9l-6.63,13.25c-5.3-3.31-18.55-20.54,6.63-13.25Z"/><path d="M78.96,54.72l15.9,29.82c-5.3-2.65-18.55-9.94-24.52-11.93l8.62-17.89Z"/><path d="M74.58,7.76C37.43,7.76,7.31,37.88,7.31,75.03s30.12,67.27,67.27,67.27,67.27-30.12,67.27-67.27S111.73,7.76,74.58,7.76Zm33.53,100.63s-25.18-16.56-43.74-23.85l-11.26,21.2c-.66,1.99-5.3,5.3-9.27,2.65-31.15-17.89-25.19-53.01,13.92-41.08l15.9-30.48c3.31-5.3,9.94-3.98,11.92,0l31.81,62.95c2.65,5.3-2.65,12.6-9.27,8.61Z"/></svg>