<svg version="1.1" id="Layer_1" xmlns:x="ns_extend;" xmlns:i="ns_ai;" xmlns:graph="ns_graphs;" xmlns="http://www.w3.org/2000/svg" xmlns:xlink="http://www.w3.org/1999/xlink" x="0px" y="0px" viewBox="0 0 140.6 40" style="enable-background:new 0 0 140.6 40;" xml:space="preserve">
 <style type="text/css">
  .st0{fill:#220D4E;}
 </style>
 <metadata>
  <sfw xmlns="ns_sfw;">
   <slices>
   </slices>
   <sliceSourceBounds bottomLeftOrigin="true" height="40" width="140.6" x="-12.3" y="-3.5">
   </sliceSourceBounds>
  </sfw>
 </metadata>
 <g>
  <path class="st0" d="M0.2,12.7L6.3,24c0.4,0.8,1.5,1.4,2.3,1.4H21c0.8,0,1.2-0.6,0.8-1.4l-6.2-11.3c-0.4-0.8-1.5-1.4-2.3-1.4H0.9
		H0.8C0.1,11.3-0.2,11.9,0.2,12.7z">
  </path>
  <path class="st0" d="M23.8,25.8l3.7,6.7c0.2,0.5,0.8,0.8,1.4,0.8l7.4-0.1c0.5,0,0.7-0.4,0.5-0.8l-3.7-6.7c-0.2-0.5-0.8-0.8-1.4-0.8
		l-7.4,0.1C23.8,25,23.5,25.4,23.8,25.8z">
  </path>
  <path class="st0" d="M23.8,0.4l-7.4,9.2c-0.5,0.6-0.5,1.8-0.1,2.5l6.2,11.2c0.4,0.8,1.1,0.9,1.7,0.2l7.4-9.2
		c0.5-0.6,0.5-1.8,0.1-2.5L25.5,0.7c-0.2-0.4-0.6-0.7-1-0.7C24.3,0,24.1,0.1,23.8,0.4z">
  </path>
  <path class="st0" d="M22.1,25.9l-4.4,5.5c-0.3,0.4-0.4,1-0.1,1.5l3.7,6.7c0.2,0.5,0.7,0.5,1,0.1l4.4-5.5c0.3-0.4,0.4-1,0.1-1.5
		L23.2,26c-0.1-0.2-0.4-0.4-0.5-0.4C22.4,25.7,22.3,25.7,22.1,25.9z">
  </path>
  <path class="st0" d="M105.6,9.8h-2.5v18h2.5V9.8z">
  </path>
  <path class="st0" d="M58.8,15.5c-3.6,0-6.4,2.8-6.4,6.2v11.5h2.5V21.7c0-2.1,1.8-3.9,4-3.9c2.2,0,4,1.8,4,3.9s-1.8,3.9-4,3.9
		c-1.2,0-2.4-0.5-3.1-1.4v3c0.9,0.5,1.9,0.7,3,0.7c3.6,0,6.4-2.8,6.4-6.2S62.3,15.5,58.8,15.5z">
  </path>
  <path class="st0" d="M72.8,15.5c-3.6,0-6.4,2.8-6.4,6.2v11.5h2.5V21.7c0-2.1,1.8-3.9,4-3.9c2.2,0,4,1.8,4,3.9s-1.8,3.9-4,3.9
		c-1.2,0-2.4-0.5-3.1-1.4v3c0.9,0.5,1.9,0.7,3,0.7c3.6,0,6.4-2.8,6.4-6.2S76.3,15.5,72.8,15.5z">
  </path>
  <path class="st0" d="M44.4,9.8c-3.6,0-6.4,2.8-6.4,6.2v11.8h2.5V16.1c0-2.1,1.8-3.8,3.9-3.8s3.9,1.7,3.9,3.8v1.3H42v2.4h6.4v8.1
		h2.5V16.1C50.9,12.6,48,9.8,44.4,9.8z">
  </path>
  <path class="st0" d="M94.8,16.1c0-2.1,1.8-3.8,3.9-3.8h3.1V9.8h-3.1c-3.6,0-6.4,2.8-6.4,6.2v11.8h2.5V20h6.8v-2.4h-6.8V16.1z">
  </path>
  <path class="st0" d="M115.9,15.6v7.5c-0.1,1.5-1.3,2.7-2.9,2.7c-1.6,0-2.8-1.2-2.9-2.7v-7.5h-2.5v7.5c0,2.4,1.8,4.5,4.1,5v5.1h2.5
		v-5.1c2.4-0.5,4.1-2.5,4.1-5v-7.5H115.9z">
  </path>
  <path class="st0" d="M129.8,22.7c-0.2,1-0.9,1.8-1.9,2.4c-1.9,1.1-4.3,0.4-5.4-1.4c-1.1-1.8-0.4-4.2,1.5-5.3
		c1.5-0.8,3.4-0.6,4.6,0.5l-5.6,3.1l1.2,2.1l7.7-4.3c-0.1-0.4-0.3-0.7-0.5-1.1c-1.8-3-5.7-4-8.8-2.3c-3.1,1.8-4.1,5.6-2.4,8.5
		c1.8,3,5.7,4,8.8,2.3c1.8-1,2.8-2.7,3.1-4.5H129.8z">
  </path>
  <path class="st0" d="M140.1,15.5c-1.5,0-2.8,0.5-3.9,1.3v-1.3h-2.5v12.3h2.5v-6.2c0-2.1,1.8-3.8,3.9-3.8h0.5v-2.4H140.1z">
  </path>
  <path class="st0" d="M88.5,22.2l-6.2-2.8c-0.3-0.1-0.4-0.5-0.3-0.8c0.1-0.2,0.3-0.4,0.5-0.4h7v-2.4h-7c-1.1,0-2.3,0.7-2.8,1.8
		c-0.7,1.5-0.1,3.3,1.5,4l6.2,2.8c0.3,0.1,0.4,0.5,0.3,0.8c-0.1,0.2-0.3,0.4-0.5,0.4H80v2.4h7.2c1.1,0,2.3-0.7,2.8-1.8
		C90.8,24.6,90.1,22.9,88.5,22.2z">
  </path>
 </g>
</svg>