<svg id="Layer_1" data-name="Layer 1" xmlns="http://www.w3.org/2000/svg" xmlns:xlink="http://www.w3.org/1999/xlink" viewBox="0 0 1000 1000"><defs><style>.cls-1{fill:#16375f;}.cls-2{fill:url(#radial-gradient);}</style><radialGradient id="radial-gradient" cx="138.71" cy="-8980.44" r="5729.12" gradientTransform="matrix(0.12, -0.02, -0.01, -0.07, -69.42, 55.18)" gradientUnits="userSpaceOnUse"><stop offset="0" stop-color="#fed576"/><stop offset="0.26" stop-color="#f47133"/><stop offset="0.61" stop-color="#bc3081"/><stop offset="1" stop-color="#4c63d2"/></radialGradient></defs><title>Instagram-logo</title><path class="cls-1" d="M358.34,449.72c12.41-12.18,20.11-12.56,20.11-12.56a20.23,20.23,0,0,1,8.3,1.71c5.88,2,6.21,5.25,6.21,5.25v89.3c.76,25-5.46,34.56-12.89,41.24a15.84,15.84,0,0,1-8.07,3.88,1.59,1.59,0,0,1-1.94-1.16A1.49,1.49,0,0,1,370,577a17.83,17.83,0,0,1,1.1-5c3.75-9.64,3.44-26.21,3.44-26.21l.35-96.13s.3-1.77-1.2-1c-14.65,12.59-16.5,30.38-17,39-.24,12.92,5.25,19.6,5.25,19.6a3.93,3.93,0,0,1,1.26,3.09,2.1,2.1,0,0,1-1.89,2.29H361c-5.51-.53-14.31-6.74-17.43-14.28a29.87,29.87,0,0,1-2.63-11.55,60.85,60.85,0,0,1,17.52-37ZM998.1,535c0,28.68-17.39,28.23-17.39,28.23-16.54.58-20.77-16.89-21.79-34.64-.8-13.36,0-28.23,0-28.23s0-.68-.58,0c-5.54,10-9.3,25.28-11.14,37.05a130,130,0,0,0-1.47,15.76,2.65,2.65,0,0,1-1.13,2.63c-9,4.12-14.75-1.73-16.8-8.28-2.63-6.2-4.31-43.49-4.31-45.43s-1.56-.6-1.56-.6c-12.45,20.66-12.55,51.29-12.55,57.44s-10.51,4.26-10.51,4.26c-9-.69-8.64-5.06-8.64-5.06l-.42-7.4c-3.12,5.76-8.9,13.12-17.82,12.62-13.5-.87-16.1-14.83-16.32-17.2,0,0-6.72,17.38-25.18,17.2-12.56-.21-17.6-13.12-17.6-13.12s-5,13.57-17.38,13.12S773,548.6,773.76,530.1a120.87,120.87,0,0,1,3.74-27.75s1-1.78-.69-2-12.34.17-12.34.17-6,24.19-31.52,54.26l.18,19.87c0,19.77-2.47,46.29-29.27,48.45C680.7,621.55,682,603.71,682,603.71c-.55-5.25,2.75-14.92,16.59-27.89l19.33-18-.55-8.3C708.53,564.18,695,563.37,695,563.37S684.5,565.5,675.76,550c-2.62,5.25-8.46,14.42-18.06,13.36-13.5-1.5-16.18-14.94-16.39-17.33,0,0-6.74,17.54-25.32,17.33-12.59-.21-17.68-13.25-17.68-13.25a42,42,0,0,1-3.17-9l-.55,1.63c-2.87,7.33-9.93,20.06-20.8,20.22-19.95,0-20.79-30.93-20.79-30.93-5.83,13.83-17.1,31.3-38.11,31.2s-23.63-7.7-23.63-8.8a7.69,7.69,0,0,1,2-5.78c2.42-3.5,4.44-4.94,6.21-4.94a11.44,11.44,0,0,1,4.7,2.62A16.31,16.31,0,0,0,514,550.7c6.61-.24,8.07-5.54,8.53-11s-3.37-11.19-8.66-16l-9.35-8.54-17.54,28.9c-10.22,16.63-20.36,19.2-24.27,18.67-5.32-.73-10.51-6.25-10.82-22.4l1.21-45.14c0-1.44-1.31-.73-1.31-.73-20.19,21.42-26.25,65.5-26.25,66.36a3.61,3.61,0,0,1-3.6,1.81c-1.81,0,.6,0-6.62-.36s-6.72-13.89-6.72-13.89l.47-65.66c0-2.18,2.15-3.12,9-1.31s6.62,3.94,6.62,3.94l-.24,38.13c17.67-52.12,31-44,39.08-40s6.85,9.72,6.85,9.72L469.15,532c-.36,10.11,1.06,14.07,3.37,14.45,5.73,1.37,25.84-37.45,25.84-37.45-8.9-9.64-4-21.41,2.89-26.5a22.18,22.18,0,0,1,10.51-3.85s9-.47,8.78,7.12c.24,8.3-9,18.38-9,18.38,17.91,12.77,26.25,19.51,27.65,29.39a18,18,0,0,1-.52,7.8c12.73-11.08,13.71-23.47,13.71-23.47l.21-41.44-18.89-.24s-1.44,0-1.77-3.64a12.06,12.06,0,0,1,3.49-9.4l18,.24.71-21.66c.6-4.35,3.37-4.94,11.29-2.89s7.88,3.85,7.88,3.85l-.89,21.8,22.48,1.21c2.66.24,3.49.89,2.89,5.32a6.59,6.59,0,0,1-3.25,5.54l-22.35.47-1.55,48.07c0,7.45.35,25,7.32,24.83,9.76.47,15.49-21.33,15.49-21.33v-.18a88.17,88.17,0,0,1,.45-12.05c1.83-17.51,9.75-38,27.58-38a19.17,19.17,0,0,1,16.67,10.51l.29-3.93s-.39-4.76,7.14-3.58,10.11,4.15,9.93,6.54l-.6,48.53c1,10.51,2.81,16.66,8.14,16.23,4.6-.68,7.88-7,9.83-12.29-6.67-55.46,23.63-62.19,23.63-62.19s13.45-.89,19.57,10.21l.17-3.72s-.6-4.91,6.51-3.55a31.45,31.45,0,0,1,6.12,1.58c3.15,1.18,4.15,2,4.15,4.91l-.6,54.78s15.76-21.22,19.78-41.85a13.11,13.11,0,0,1-5.25-10c.39-5.91,3.36-13,12.06-13s9.4,7.7,8.11,12.95a110.49,110.49,0,0,0,13.63-2.63c6.33-1.73,14.81-2.62,15.41,7.28a11.18,11.18,0,0,1-1.18,6.3s-5,21.91-4.23,30.76,3.15,22.21,10.09,20.64,9.29-11.39,9.29-11.39a80,80,0,0,1-1.39-24.59c1.83-17.38,9.61-37.73,27.47-37.73a19,19,0,0,1,16.6,10.51l.22-3.94s-.39-4.73,7.12-3.55,10.08,4.13,9.87,6.48l-.6,48.15c1,10.51,2.78,16.55,8.08,16.12s9.43-8.79,12.11-15.76v-2.62l.16-51.13a3.43,3.43,0,0,1,3.07-3.1l6.14.95c8.6,1.28,7.41,4.57,7.41,4.57V514.7c6.38-19.62,9.45-27.1,12.34-32.1,2.47-4.26,10.51-1.48,10.51-1.48s8.78,2.34,8.87,10.51c-.27,13.34,1.63,35.06,1.63,35.06s.34.44.5.29a.85.85,0,0,0,.13-.47,179.74,179.74,0,0,1,12.87-42.91c3.17-6,12.37-1.73,12.37-1.73,11,3.78,9.53,10.32,9.53,10.32-3.25,56.08,3.68,59.61,7.78,60s6.25-4.94,7.14-7.45,2-8,2.62-10.22a3.29,3.29,0,0,1,2.84-2.29,3.14,3.14,0,0,1,2.63,2.63ZM625.89,492c-3.85.15-12.94,2.62-14.58,27.93s5.08,31.8,10.72,32.55,15.76-8.34,16.23-35.21S625.89,492,625.89,492Zm79.2,0c-3.94.15-13.82,3.6-16.05,28-1.66,25.57,5.25,32.19,10.87,33s15.76-8.43,16.47-35.67-11.29-25.21-11.29-25.21Zm13.12,78.44c-22.37,19.34-24.31,33.14-24.31,33.14s-2.22,11.32,8.55,11.89c12.95,1.31,15.13-14.42,15.47-28.19l.42-16.69ZM841,492.9c-3.86.16-12.95,2.63-14.58,27.94s5.07,31.8,10.71,32.54,15.76-8.33,16.23-35.2S841,492.9,841,492.9Z"/><path class="cls-2" d="M160.54,419.21a80.76,80.76,0,0,0-8.27.42,79.35,79.35,0,0,0-8,1.24q-3.94.81-7.76,2L129,425.6,122,429l-6.69,4.07L109,437.77,103.26,443,98,448.76,93.33,455l-4.07,6.68-3.42,7.08a78.62,78.62,0,0,0-2.74,7.44,80,80,0,0,0-2,7.75,78.72,78.72,0,0,0-1.24,8,80.4,80.4,0,0,0,1.24,24.54,79.45,79.45,0,0,0,4.74,15.19l3.42,7.08,4.07,6.68L98,551.7l5.25,5.76,5.76,5.23,6.25,4.68,6.69,4.07,7.08,3.42,7.44,2.73,7.76,2a81,81,0,0,0,24.56,1.24,80.23,80.23,0,0,0,8-1.24l7.76-2,7.44-2.73,7.09-3.42,6.69-4.07,6.24-4.68,5.77-5.23,5.24-5.76,4.68-6.24,4.07-6.68,3.43-7.08,2.74-7.44a80,80,0,0,0,2-7.75l1.24-8c.27-2.71.42-5.47.42-8.25s-.15-5.54-.42-8.26a80.48,80.48,0,0,0-1.24-8,79.27,79.27,0,0,0-2-7.75l-2.74-7.44-3.43-7.08L227.74,455l-4.68-6.24L217.82,443l-5.77-5.24-6.24-4.67L199.12,429,192,425.6l-7.44-2.73-7.76-2-8-1.23a81.3,81.3,0,0,0-8.26-.42Zm0,28a54.49,54.49,0,0,1,5.45.27l5.29.8,5.1,1.3,4.89,1.77,4.64,2.23,4.37,2.64,4.08,3.05,3.77,3.41,3.42,3.77,3,4.08,2.65,4.37,2.23,4.64q1,2.39,1.78,4.89c.51,1.66.95,3.36,1.3,5.1s.61,3.49.8,5.28l.27,5.45c0,1.85-.09,3.66-.27,5.46s-.45,3.55-.8,5.28-.79,3.44-1.3,5.1L209.47,521l-2.23,4.64L204.59,530l-3,4.08-3.42,3.77-3.77,3.41-4.08,3-4.37,2.64-4.64,2.23-4.89,1.77-5.1,1.3L166,553c-1.81.18-3.63.27-5.45.27s-3.65-.09-5.46-.27l-5.28-.8a51,51,0,0,1-5.11-1.3l-4.88-1.77-4.65-2.23-4.37-2.64-4.08-3-3.77-3.41-3.42-3.77-3-4.08-2.65-4.37L111.6,521l-1.78-4.89-1.3-5.1-.8-5.28q-.27-2.71-.27-5.46c0-1.82.09-3.64.27-5.45s.45-3.55.8-5.28a52.22,52.22,0,0,1,1.31-5.1l1.77-4.89,2.23-4.64,2.65-4.37,3-4.08,3.41-3.76,3.77-3.42,4.08-3,4.37-2.65,4.65-2.23q2.4-1,4.88-1.77l5.11-1.3c1.73-.35,3.5-.62,5.28-.8s3.64-.27,5.46-.27Z"/><path class="cls-2" d="M244.92,396.17c-.64,0-1.28,0-1.93.09s-1.27.16-1.9.29-1.26.29-1.87.48-1.22.42-1.82.67-1.17.54-1.74.85-1.11.65-1.64,1-1.05.76-1.54,1.18-1,.86-1.41,1.32-.87.95-1.27,1.46-.78,1-1.13,1.58a18.81,18.81,0,0,0-1,1.69c-.29.57-.55,1.17-.79,1.77s-.43,1.22-.61,1.84-.31,1.26-.42,1.9-.18,1.28-.23,1.93c0,.46,0,.91,0,1.37a19.74,19.74,0,0,0,.39,3.87,17.81,17.81,0,0,0,.47,1.88,16.5,16.5,0,0,0,.67,1.82,17.6,17.6,0,0,0,.84,1.75,17.39,17.39,0,0,0,1,1.66c.37.54.76,1.05,1.17,1.55s.86,1,1.32,1.42a17.68,17.68,0,0,0,1.45,1.28,17.32,17.32,0,0,0,1.57,1.13,18.58,18.58,0,0,0,1.67,1c.58.29,1.17.56,1.77.79s1.21.44,1.83.62,1.25.31,1.88.42,1.28.19,1.92.24c.45,0,.91.05,1.36.05.65,0,1.29,0,1.93-.1s1.28-.16,1.91-.29,1.26-.29,1.87-.48a18.63,18.63,0,0,0,1.81-.67,18.64,18.64,0,0,0,3.39-1.86c.53-.37,1-.76,1.54-1.18a17.49,17.49,0,0,0,1.41-1.32,17.71,17.71,0,0,0,1.27-1.46,19.4,19.4,0,0,0,2.08-3.27,16.46,16.46,0,0,0,.79-1.77,17.23,17.23,0,0,0,.61-1.84c.17-.63.32-1.26.43-1.9s.18-1.28.23-1.93c0-.46.05-.91.05-1.37,0-.65,0-1.3-.1-1.94a17.42,17.42,0,0,0-.29-1.92q-.19-1-.48-1.89a19.56,19.56,0,0,0-2.51-5.23,17.48,17.48,0,0,0-1.17-1.55c-.41-.49-.85-1-1.31-1.42s-.95-.88-1.45-1.28-1-.78-1.57-1.13-1.1-.67-1.68-1a18.52,18.52,0,0,0-1.76-.79c-.6-.24-1.21-.44-1.83-.62s-1.25-.31-1.88-.42a18,18,0,0,0-1.92-.23c-.46,0-.91-.05-1.37-.05Z"/><path class="cls-2" d="M145.16,341.73c-8.82,0-16.69,0-23.76.12l-19,.51c-5.62.25-10.58.56-15,1-2.23.2-4.33.43-6.32.68s-3.79.52-5.67.84-3.49.63-5.13,1-3.19.74-4.69,1.16-2.93.85-4.37,1.33-2.8,1-4.16,1.53c-2.73,1.08-5.39,2.29-8.14,3.65-2.1,1.05-4,2.11-5.9,3.23a62.94,62.94,0,0,0-5.33,3.6c-1.76,1.33-3.47,2.75-5.1,4.24s-3.46,3.27-5.27,5.19c-2.28,2.39-4.26,4.61-6,6.8-.88,1.09-1.7,2.18-2.47,3.26s-1.5,2.17-2.2,3.29-1.35,2.23-2,3.39-1.24,2.38-1.8,3.6c-1.16,2.48-2.24,5.15-3.31,8.14-.8,2.2-1.52,4.44-2.15,6.7s-1.21,4.73-1.72,7.34-1,5.43-1.35,8.53q-.63,5.12-1,10.25c-.28,3.77-.52,7.91-.71,12.52l-.46,15.34-.25,18.69-.07,22.59.21,32.85L2.7,558l.5,9.72.63,8.06q.3,3.25.75,6.49c.27,1.92.57,3.6.89,5,.64,3,1.4,5.88,2.28,8.78s1.79,5.5,2.87,8.18,2.22,5.17,3.48,7.62,2.62,4.79,4.08,7a75.92,75.92,0,0,0,4.7,6.48,74.9,74.9,0,0,0,5.32,5.94,76.45,76.45,0,0,0,5.94,5.4q3.16,2.6,6.57,4.86c2.11,1.41,4.19,2.7,6.29,3.89s4.21,2.25,6.39,3.23,4.41,1.85,6.74,2.64,4.76,1.5,7.32,2.12,5.29,1.17,8.16,1.65,6,.89,9.23,1.24,6.79.64,10.55.89,7.79.44,12.11.59c6.68.25,16.79.39,28.44.44l37.74-.08,35.73-.5,13.59-.38,8.85-.45c1.9-.16,3.76-.34,5.56-.56s3.56-.45,5.28-.73,3.41-.59,5.06-.94,3.27-.72,4.89-1.14,3.17-.87,4.74-1.36,3.11-1,4.64-1.59,3.08-1.18,4.6-1.83,3.05-1.34,4.58-2.08c2.35-1.13,4.24-2.08,5.9-3a39.47,39.47,0,0,0,4.51-2.87,53.06,53.06,0,0,0,4.45-3.73c1.63-1.49,3.47-3.3,5.75-5.58,2-2,3.69-3.74,5.15-5.33s2.69-3,3.76-4.38a44.49,44.49,0,0,0,2.87-4.07c.86-1.37,1.65-2.79,2.46-4.37,1.21-2.38,2.29-4.58,3.26-6.71s1.8-4.13,2.58-6.24,1.42-4.23,2-6.4,1.07-4.57,1.49-7.15.79-5.38,1.1-8.51.58-6.59.82-10.48l.62-13,.53-16.23.38-18.08.14-18.91-.34-37.14-.45-16.63-.62-14.28-.77-11.14c-.28-3.1-.58-5.54-.91-7.19q-.53-2.73-1.19-5.44c-.42-1.75-.89-3.5-1.4-5.23s-1-3.37-1.63-5-1.19-3.25-1.83-4.82-1.33-3.1-2.05-4.61-1.48-3-2.27-4.4-1.62-2.83-2.49-4.19-1.76-2.69-2.7-4-1.9-2.55-2.91-3.78-2.05-2.4-3.13-3.56-2.2-2.27-3.35-3.35-2.34-2.14-3.56-3.15-2.49-2-3.77-2.93-2.64-1.86-4-2.73-2.78-1.72-4.21-2.51-2.92-1.58-4.42-2.31c-2.48-1.2-4.77-2.27-7-3.22s-4.47-1.78-6.76-2.51a72.12,72.12,0,0,0-7.35-1.89c-2.64-.53-5.52-1-8.78-1.36s-6.9-.69-11.06-1-8.85-.45-14.19-.62l-18.17-.4-23-.27-29.45-.19Zm15.29,27.94,42.47.24,16,.31c4.41.13,7.78.27,9.76.44,2.57.22,5,.49,7.36.81s4.48.7,6.7,1.16,4.17.95,6.12,1.53,3.8,1.21,5.59,1.92a54.55,54.55,0,0,1,5.13,2.35,51.42,51.42,0,0,1,4.75,2.8q2.28,1.51,4.42,3.27c1.42,1.18,2.81,2.43,4.16,3.78a56.85,56.85,0,0,1,3.95,4.35,47.65,47.65,0,0,1,3.34,4.66,45.74,45.74,0,0,1,2.79,5.09,52.28,52.28,0,0,1,2.27,5.69c.68,2,1.29,4.14,1.82,6.42s1,4.86,1.41,7.31.75,5.37,1.05,8.34.54,6.14.74,9.53c.16,2.72.3,6.3.42,10.54l.3,14.44.22,35.37L291,535.36l-.31,14.4-.42,10.48c-.3,4.9-.61,9-1,12.61-.19,1.79-.39,3.45-.61,5s-.47,2.94-.75,4.4-.58,2.65-.92,4-.71,2.49-1.13,3.71-.88,2.45-1.37,3.66-1.07,2.53-1.65,3.77-1.06,2.2-1.63,3.25-1.17,2.07-1.81,3.07-1.29,2-2,2.89-1.4,1.84-2.16,2.71-1.53,1.73-2.34,2.54-1.66,1.61-2.53,2.37-1.78,1.5-2.72,2.2-1.91,1.38-2.91,2-2,1.27-3.1,1.86-2.17,1.16-3.3,1.7-2.33,1.06-3.51,1.54-2.46,1-3.71,1.38q-3.81,1.29-8,2.28c-2.93.68-5.9,1.23-8.89,1.66-1.14.17-3.78.33-7.56.47l-14.4.4-40.83.54-42.74.06-16.78-.18-10.9-.34-8-.56c-2.49-.21-4.81-.44-7-.71s-4.2-.56-6.11-.89-3.6-.69-5.38-1.12c-1.62-.4-3.23-.86-4.81-1.38s-3-1.07-4.42-1.68-2.8-1.29-4.17-2S58.36,619.89,57,619c-1-.66-2-1.32-3-2s-1.89-1.4-2.79-2.14-1.75-1.49-2.58-2.27S47,611,46.25,610.16s-1.49-1.68-2.19-2.57-1.37-1.8-2-2.74-1.25-1.93-1.83-2.93-1.13-2-1.65-3.12-1-2.2-1.49-3.33-.91-2.32-1.33-3.55a80.58,80.58,0,0,1-2.2-7.81c-.63-2.78-1.17-5.72-1.63-8.86s-.83-6.47-1.13-10c-.22-2.6-.39-6.66-.52-11.78L30,535.25l.11-46.42.79-44.36.61-15.63.35-5.17a28.48,28.48,0,0,1,.37-3c.42-2,.84-3.9,1.28-5.66s.86-3.3,1.35-4.94,1-3,1.51-4.35,1.09-2.63,1.72-3.91,1.28-2.42,2-3.58,1.5-2.27,2.34-3.39,1.76-2.21,2.75-3.33,2.06-2.24,3.22-3.4q2-2,4.22-3.91t4.31-3.3a45.53,45.53,0,0,1,4.53-2.75,49,49,0,0,1,4.91-2.26q2.56-1,5.41-1.82c2-.57,4-1,6.07-1.44s4.42-.79,6.85-1.11,5-.59,7.79-.83c1.93-.17,5.26-.32,9.64-.44l15.94-.32,42.4-.26Z"/></svg>