<svg width="100" height="108" viewBox="0 0 100 108" fill="none" xmlns="http://www.w3.org/2000/svg">
<path d="M2.74004 5.4011C1.56504 6.60035 0.88504 8.46747 0.88504 10.8855V97.134C0.88504 99.552 1.56504 101.419 2.74004 102.618L3.03004 102.882L52.6 54.5704V53.4296L3.03004 5.11836L2.74004 5.4011Z" fill="white"/>
<path d="M75.1049 70.6822L58.5999 54.5703V53.4296L75.1249 37.3177L75.4949 37.5273L95.0649 48.3839C100.65 51.4649 100.65 56.5349 95.0649 59.6354L75.4949 70.4726L75.1049 70.6822V70.6822Z" fill="white"/>
<path d="M72.495 73.4726L55.6 57L5.73999 105.618C7.59499 107.52 10.62 107.749 14.06 105.847L72.495 73.4726" fill="white"/>
<path d="M72.495 34.5274L14.06 2.15251C10.62 0.270764 7.59499 0.499883 5.73999 2.40113L55.6 51L72.495 34.5274Z" fill="white"/>
</svg>
